<svg viewBox="0 0 920 584" fill="none" xmlns="http://www.w3.org/2000/svg" role="img" aria-label="Ala Archa">
<g transform="translate(0.000000,584.000000) scale(0.100000,-0.100000)" stroke="none" fill="currentColor">
<path d="M4450 3363 c-211 -389 -393 -732 -403 -762 -22 -65 -25 -184 -7 -251
11 -43 133 -285 148 -294 6 -4 596 1065 749 1356 101 193 98 299 -15 518 -38
74 -73 135 -78 137 -5 1 -182 -315 -394 -704z"/>
<path d="M5114 3337 c-83 -152 -97 -193 -97 -302 0 -73 4 -101 24 -150 23 -56
447 -845 454 -845 10 0 135 244 149 289 20 69 21 182 0 252 -14 49 -452 869
-464 869 -3 0 -33 -51 -66 -113z"/>
<path d="M2745 1534 c-412 -757 -751 -1382 -753 -1390 -5 -20 786 -20 901 1
172 30 318 128 426 285 56 82 337 618 352 670 17 61 15 195 -4 253 -21 65
-149 299 -159 289 -15 -15 -292 -531 -390 -726 -110 -220 -154 -278 -245 -322
-36 -18 -76 -28 -123 -32 -39 -2 -70 -2 -70 1 0 10 811 1492 818 1495 4 1 223
-394 487 -879 528 -969 518 -953 642 -1012 66 -30 73 -31 227 -35 152 -4 159
-4 152 14 -10 26 -1483 2727 -1499 2747 -10 14 -126 -193 -762 -1359z"/>
<path d="M5608 1867 c-395 -726 -572 -1060 -583 -1102 -34 -133 -14 -234 82
-409 36 -67 67 -122 68 -123 1 -2 226 409 501 912 274 503 501 915 504 915 6
0 809 -1464 819 -1492 8 -22 -135 -2 -192 26 -91 44 -135 102 -243 317 -84
169 -298 570 -371 697 l-25 44 -21 -34 c-11 -18 -46 -82 -77 -143 -74 -142
-90 -221 -67 -337 13 -67 37 -119 168 -366 84 -158 166 -307 183 -332 107
-160 260 -265 434 -296 114 -20 905 -20 900 0 -4 20 -1502 2766 -1508 2765 -3
0 -260 -469 -572 -1042z"/>
</g>
</svg>